<svg width="60" height="60" viewBox="0 0 60 60" fill="none" xmlns="http://www.w3.org/2000/svg">
<path fill-rule="evenodd" clip-rule="evenodd" d="M9.1688 42.6554L5.67379 53.1414C5.56223 53.478 5.64941 53.8492 5.90067 54.1005C6.15192 54.3517 6.52317 54.4389 6.85973 54.3273L17.3457 50.8314C21.0348 53.0795 25.3679 54.3751 30.001 54.3751C43.4542 54.3751 54.3761 43.4532 54.3761 30.0001C54.3761 16.5469 43.4542 5.625 30.001 5.625C16.5479 5.625 5.62598 16.5469 5.62598 30.0001C5.62598 34.6332 6.92161 38.9664 9.1688 42.6554ZM11.0869 42.8307C11.176 42.5636 11.1404 42.2701 10.9894 42.032C8.78067 38.552 7.50098 34.4242 7.50098 30.0001C7.50098 17.5819 17.5829 7.50001 30.001 7.50001C42.4192 7.50001 52.5011 17.5819 52.5011 30.0001C52.5011 42.4182 42.4192 52.5001 30.001 52.5001C25.577 52.5001 21.4492 51.2205 17.9691 49.0117C17.731 48.8608 17.4376 48.8251 17.1704 48.9142L8.04567 51.9555L11.0869 42.8307Z" fill="white"/>
<path fill-rule="evenodd" clip-rule="evenodd" d="M35.9783 32.8094C35.6267 32.658 35.2179 32.7371 34.9467 33.0082L31.6322 36.3228C31.4081 36.5468 31.0274 36.5254 30.5639 36.4266C29.415 36.1805 27.9285 35.2707 26.3288 33.6711C24.7291 32.0714 23.8193 30.5849 23.5733 29.4359C23.4744 28.9725 23.453 28.5917 23.6771 28.3677L26.9916 25.0531C27.2628 24.782 27.3418 24.3731 27.1904 24.0215C27.1904 24.0215 26.3209 21.9919 25.3947 19.8314C24.7817 18.4016 23.4999 17.369 21.9729 17.0751C20.4453 16.7805 18.8715 17.263 17.7717 18.3628C16.8449 19.2896 16.1197 20.0148 16.1197 20.0148C14.526 21.6085 13.9144 23.9852 14.2715 26.7315C14.7643 30.527 17.125 35.0739 21.0255 38.9744C24.9259 42.8748 29.4729 45.2355 33.2684 45.7283C36.0146 46.0854 38.3914 45.4738 39.985 43.8801C39.985 43.8801 40.7103 43.1549 41.637 42.2282C42.7368 41.1284 43.2193 39.5545 42.9247 38.027C42.6308 36.5 41.5982 35.2181 40.1685 34.6051C38.008 33.679 35.9783 32.8094 35.9783 32.8094ZM35.8236 34.7827L39.4298 36.3285C40.2877 36.6959 40.9074 37.4654 41.0838 38.3815C41.2601 39.2977 40.9704 40.2423 40.3108 40.9019L38.6588 42.5539C37.443 43.7697 35.6048 44.1416 33.5094 43.8693C30.0421 43.4195 25.9148 41.2121 22.3513 37.6485C18.7877 34.085 16.5803 29.9578 16.1306 26.4904C15.8582 24.395 16.2302 22.5568 17.4459 21.3411L19.0979 19.6891C19.7575 19.0295 20.7021 18.7397 21.6183 18.9161C22.5345 19.0924 23.3039 19.7121 23.6714 20.5701L25.2172 24.1762L22.3514 27.042C21.7548 27.6386 21.4761 28.597 21.7396 29.8283C22.0373 31.2186 23.0676 33.0615 25.0029 34.9969C26.9383 36.9323 28.7813 37.9625 30.1716 38.2603C31.4028 38.5237 32.3612 38.2451 32.9578 37.6484L35.8236 34.7827Z" fill="white"/>
</svg>
